<svg xmlns="http://www.w3.org/2000/svg" viewBox="0 0 100 100"><title>Artboard 2 copy 13</title><g data-name="Layer 1"><path d="M77.95 33.14a28 28 0 0 0 .41-3.89c-3.25-.4-7-.31-8.45 1.8C67 35.15 72.64 45.18 75 49.47c.61 1.1 1.06 1.9 1.26 2.39a13.72 13.72 0 0 0 .73 1.5c1.64-3.5 1.22-7 .81-10.49a34.51 34.51 0 0 1-.36-5.16 36 36 0 0 1 .51-4.57zm-2.74-.8a2.8 2.8 0 0 1-1.58.87h-.3a2.31 2.31 0 0 1-2.17-1.44c-.09-.68 1-1.21 2.18-1.37a5.44 5.44 0 0 1 .74-.05c1 0 1.66.3 1.72.77a1.74 1.74 0 0 1-.59 1.23zM63.76 6.93a36 36 0 0 1 8-.75C79.74 6.36 86 9.34 90.5 15c3.42 4.37-.35 24.27-11.26 41.44l-.33-.42-.14-.17c2.82-4.66 2.27-9.26 1.78-13.35a32 32 0 0 1-.34-4.75 33.63 33.63 0 0 1 .46-4.24 26.68 26.68 0 0 0 .43-5.24 2.15 2.15 0 0 0 0-.74C81 25.7 78.82 20.06 74.43 15a30.24 30.24 0 0 0-10.67-8.07zM33.6 57q.47.49 1 .92c-1.35 1.44-4.27 4.63-7.39 8.37-2.21 2.71-3.75 2.17-4.21 2-3.26-1.09-7-8-10.38-18.91C9.7 39.93 8 30.42 7.88 27.75 7.46 19.32 9.5 13.45 14 10.29c7.25-5.14 19.16-2.06 23.95-.5l-.21.2C29.84 17.92 30 31.47 30 32.3c0 .32 0 .77.06 1.39A56.1 56.1 0 0 1 29.82 45a14.33 14.33 0 0 0 3.78 12zm43.9 1.72c-1.56.45-4.35 1.49-4.1 6.67-.2 2.61-1.66 14.78-2.4 19.08-1 5.68-3.07 7.8-8.95 9.06-6.09 1.31-8.25-1.8-9.67-5.36-.92-2.3-1.37-12.64-1-24.07a1.34 1.34 0 0 0-.06-.44 5.69 5.69 0 0 0-.17-.81 5.58 5.58 0 0 0-3-3.63 4.84 4.84 0 0 0-1.9-.45 3.5 3.5 0 0 0-.88.11 33.82 33.82 0 0 1 1.2-3.59l.21-.55c.23-.62.52-1.26.83-1.95 1.66-3.68 3.92-8.72 1.46-20.1-.92-4.26-4-6.34-8.67-5.86a20 20 0 0 0-6.63 2.07l-.76.41c.26-4.31 1.6-12.31 6.64-17.39 3.17-3.2 7.39-4.78 12.54-4.7a26.58 26.58 0 0 1 20.3 9.7 30.82 30.82 0 0 1 5.56 9.53c-5.13-.52-8.63.49-10.4 3-3.85 5.51 2.11 16.2 5 21.33.53.94 1 1.75 1.12 2.1a19 19 0 0 0 3 4.87c.23.37.53.7.73.98zm-29 4.88a2.05 2.05 0 0 1-.18 1.72 10 10 0 0 1-8.57 4.42 15.43 15.43 0 0 1-3.75-.47 6.1 6.1 0 0 1-1.84-.79 8.92 8.92 0 0 1 2-.58c5-1 5.75-1.75 7.43-3.88.39-.49.82-1 1.43-1.72a1.85 1.85 0 0 1 1.21-.77 2.41 2.41 0 0 1 .85.24 2.92 2.92 0 0 1 1.37 1.84zm42.84-1.7h.06a15.21 15.21 0 0 1-3.92 2.53 20.05 20.05 0 0 1-6.78 1.41c-2.79.13-4.22-.31-4.55-.59-.16-3.23 1-3.56 2.32-3.92l.58-.18c.12.09.25.19.39.28 2.24 1.48 6.24 1.64 11.9.47zM43.9 54.33l.2-.55c.26-.71.57-1.39.9-2.12 1.58-3.51 3.55-7.89 1.28-18.38a4.17 4.17 0 0 0-3.22-3.6c-3.79-.87-9.11 2-10.26 3v.85a58.59 58.59 0 0 1-.31 11.87 11.59 11.59 0 0 0 3 9.7 9.79 9.79 0 0 0 7 3.11 36.09 36.09 0 0 1 1.41-3.88zm-3.57-21.2a1.68 1.68 0 0 1-.4-1.13c.08-.61.81-1 1.95-1a5.63 5.63 0 0 1 .78.06c1.23.17 2.49.75 2.37 1.62a2.52 2.52 0 0 1-2.4 1.64h-.33a3.09 3.09 0 0 1-1.97-1.19zm57.56 27a5.26 5.26 0 0 0-5.48-4 11.1 11.1 0 0 0-2.26.26 31.2 31.2 0 0 1-4.28.61 95.56 95.56 0 0 0 9.81-23.54c1.87-7.22 3.28-16.87-.59-21.81C89.41 4.34 81.09.5 71 .5a42 42 0 0 0-11.64 1.69 45.63 45.63 0 0 0-7.07-.64h-.49a23.29 23.29 0 0 0-11.9 3 51.11 51.11 0 0 0-15.45-2.73C17.38 1.82 11.82 3.91 7.91 8 3.58 12.57 1.61 19.36 2 28.21 2.23 31.92 4.37 43 7.43 52.63c4.73 14.87 9.94 21.8 16.39 21.8a9.08 9.08 0 0 0 5.71-2.1 10.43 10.43 0 0 0 5 2.76 21.25 21.25 0 0 0 5.14.66 16.62 16.62 0 0 0 6.21-1.15v1.16c0 .81 0 1.6.07 2.34.2 5 .55 8.94 1.57 11.7.05.14.13.37.2.6a15.45 15.45 0 0 0 2.67 5.31 10.55 10.55 0 0 0 8.51 3.79 16.89 16.89 0 0 0 3.53-.4c3.73-.8 8-2 11-6.41 2.89-4.11 4.29-10.27 4.54-20l.11-1h1.54a26.41 26.41 0 0 0 10.21-2c2.25-.81 9.17-4.47 8.06-9.57zm-9.25 6.8a23.19 23.19 0 0 1-8.85 1.69 13.6 13.6 0 0 1-3.9-.48c-.5 4.61-1.57 13.21-2.19 16.82-1.16 6.74-4.17 9.8-11.08 11.28a15.48 15.48 0 0 1-3.22.37c-6.63 0-8.73-5.25-9.58-7.39-1-2.62-1.41-11.23-1.34-20a12.74 12.74 0 0 1-8.77 3.28 18.16 18.16 0 0 1-4.39-.57c-.44-.11-4.27-1.14-4.22-3.59 0-2.24 3.25-2.9 4.45-3.15 4.23-.87 4.51-1.22 5.82-2.89.27-.34.58-.73 1-1.19v-.15a12.19 12.19 0 0 1-5.44-1.46c-1.14 1.22-4.24 4.57-7.57 8.56-2 2.4-3.92 3.11-5.49 3.11a5.4 5.4 0 0 1-1.72-.29c-4.3-1.43-8.38-8.4-12.14-20.71-2.91-9.34-4.72-19.1-4.88-22.28-.47-9.44 2-16.12 7.24-19.85 9.44-6.69 24.7-1.55 28-.31a20 20 0 0 1 11.87-3.26 30.61 30.61 0 0 1 6.91.89 36.46 36.46 0 0 1 12.28-1.94c8.89.09 16.24 3.52 21.24 9.92 3.38 4.32 1.15 14.82 0 19.14a92.46 92.46 0 0 1-11.81 26.57c.79.58 3.2 1.54 9.92.15 2.26-.47 3.63-.05 4.05 1.23.82 2.47-3.69 5.32-6.19 6.48z" fill="#242a30" data-name="3e91140ac1bfb9903b91c1b0ca09020a"/></g><path fill="none" d="M.24.4h100v100H.24z" data-name="Layer 2"/></svg>